# xmcd CD database file generated by LOLA_Freedb v0.9beta0
# 
# Track frame offsets:
#      150
#      12217
#      33745
#      47582
#      60850
#      74422
#      91955
#      109695
#      128542
#      141932
#      158862
#      171670
#      180757
# 
# Disc length: 2578 seconds
# 
# Revision: 0 
# Processed by: cddbd v1.5.1PL0 Copyright (c) Steve Scherf et al.
# Submitted via: LOLA_Freedb v0.9beta0
# 
DISCID=a60a100d
DTITLE=Tina Elton - In the middle of the night
DYEAR=1994
DGENRE=
TTITLE0=Tina Elton - It´ Must Be Love
TTITLE1=Tina Elton - New Kid in Town
TTITLE2=Tina Elton - Under The Bordwalk
TTITLE3=Tina Elton - Break My Mind
TTITLE4=Tina Elton - In The Middle Of The Night
TTITLE5=Tina Elton - Slow Hand
TTITLE6=Tina Elton - On Tour Again
TTITLE7=Tina Elton - I´ll Be Your Baby Tonight
TTITLE8=Tina Elton - Dream Baby
TTITLE9=Tina Elton - Should I Do It
TTITLE10=Tina Elton - Everything I Think
TTITLE11=Tina Elton - End Of The Bar
TTITLE12=Tina Elton - Rocky Top
EXTD=
EXTT0=
EXTT1=
EXTT2=
EXTT3=
EXTT4=
EXTT5=
EXTT6=
EXTT7=
EXTT8=
EXTT9=
EXTT10=
EXTT11=
EXTT12=
PLAYORDER=
